<svg width="249" height="249" viewBox="0 0 249 249" fill="none" xmlns="http://www.w3.org/2000/svg">
<rect x="14" y="55" width="219" height="143" rx="52" fill="#32B968"/>
<path d="M233.438 123.819C233.438 123.284 233.438 122.676 233.413 121.971C233.389 120.001 233.34 117.789 233.292 115.43C233.097 108.646 232.757 101.886 232.222 95.5148C231.492 86.7366 230.422 79.4174 228.963 73.9219C227.424 68.1868 224.406 62.9564 220.211 58.7532C216.016 54.5501 210.792 51.5215 205.06 49.9702C198.179 48.1222 184.707 46.9793 165.741 46.2741C156.719 45.9337 147.066 45.7148 137.412 45.5933C134.032 45.5446 130.895 45.5203 128.075 45.496H120.925C118.105 45.5203 114.968 45.5446 111.588 45.5933C101.934 45.7148 92.2808 45.9337 83.2594 46.2741C64.2926 47.0036 50.797 48.1465 43.9397 49.9702C38.206 51.5177 32.9796 54.545 28.7844 58.7487C24.5892 62.9525 21.5725 68.185 20.0367 73.9219C18.5534 79.4174 17.5078 86.7366 16.7783 95.5148C16.2434 101.886 15.9029 108.646 15.7084 115.43C15.6354 117.789 15.6111 120.001 15.5868 121.971C15.5868 122.676 15.5625 123.284 15.5625 123.819V125.181C15.5625 125.716 15.5625 126.324 15.5868 127.029C15.6111 128.999 15.6598 131.211 15.7084 133.57C15.9029 140.354 16.2434 147.114 16.7783 153.485C17.5078 162.263 18.5777 169.583 20.0367 175.078C23.1492 186.726 32.2922 195.917 43.9397 199.03C50.797 200.878 64.2926 202.021 83.2594 202.726C92.2808 203.066 101.934 203.285 111.588 203.407C114.968 203.455 118.105 203.48 120.925 203.504H128.075C130.895 203.48 134.032 203.455 137.412 203.407C147.066 203.285 156.719 203.066 165.741 202.726C184.707 201.996 198.203 200.854 205.06 199.03C216.708 195.917 225.851 186.75 228.963 175.078C230.447 169.583 231.492 162.263 232.222 153.485C232.757 147.114 233.097 140.354 233.292 133.57C233.365 131.211 233.389 128.999 233.413 127.029C233.413 126.324 233.438 125.716 233.438 125.181V123.819ZM215.93 125.084C215.93 125.594 215.93 126.154 215.905 126.81C215.881 128.707 215.832 130.798 215.784 133.059C215.614 139.528 215.273 145.996 214.762 152.002C214.106 159.832 213.182 166.251 212.039 170.555C210.531 176.172 206.106 180.622 200.513 182.106C195.407 183.467 182.543 184.562 165.06 185.218C156.209 185.558 146.677 185.777 137.169 185.899C133.837 185.948 130.749 185.972 127.977 185.972H121.023L111.831 185.899C102.323 185.777 92.8157 185.558 83.9402 185.218C66.4567 184.537 53.569 183.467 48.4869 182.106C42.8941 180.598 38.4686 176.172 36.9609 170.555C35.8181 166.251 34.894 159.832 34.2375 152.002C33.7269 145.996 33.4107 139.528 33.2162 133.059C33.1433 130.798 33.1189 128.682 33.0946 126.81C33.0946 126.154 33.0703 125.57 33.0703 125.084V123.916C33.0703 123.406 33.0703 122.846 33.0946 122.19C33.1189 120.293 33.1676 118.202 33.2162 115.941C33.3864 109.472 33.7269 103.004 34.2375 96.9981C34.894 89.1683 35.8181 82.7487 36.9609 78.4447C38.4686 72.8276 42.8941 68.3777 48.4869 66.8944C53.5934 65.5327 66.4567 64.4385 83.9402 63.7819C92.7914 63.4415 102.323 63.2227 111.831 63.1011C115.162 63.0524 118.251 63.0281 121.023 63.0281H127.977L137.169 63.1011C146.677 63.2227 156.184 63.4415 165.06 63.7819C182.543 64.4628 195.431 65.5327 200.513 66.8944C206.106 68.4021 210.531 72.8276 212.039 78.4447C213.182 82.7487 214.106 89.1683 214.762 96.9981C215.273 103.004 215.589 109.472 215.784 115.941C215.857 118.202 215.881 120.318 215.905 122.19C215.905 122.846 215.93 123.43 215.93 123.916V125.084ZM102.858 157.084L159.272 124.257L102.858 91.916V157.084Z" fill="black"/>
</svg>
