<svg width="188" height="188" viewBox="0 0 188 188" fill="none" xmlns="http://www.w3.org/2000/svg">
<ellipse cx="93" cy="88.5" rx="93" ry="86.5" fill="#F72D0C"/>
<g clip-path="url(#clip0_6_77)">
<path d="M76.6564 57.051C105.09 57.8234 126.977 61.0978 147.281 71.397C150.15 72.8682 153.608 74.9648 154.748 77.6133C155.814 80.0779 155.189 85.2275 153.387 86.5147C150.849 88.3539 145.736 89.2367 143.087 87.8757C122.194 77.0611 99.9403 73.6035 76.8771 74.5231C67.6445 74.891 58.3751 76.6197 49.2894 78.3854C43.3672 79.5624 38.475 78.9003 36.7463 72.7942C34.8703 66.3203 39.4682 63.0097 44.9858 61.9798C57.3816 59.773 69.925 58.0808 76.6562 57.0508L76.6564 57.051ZM80.8868 85.0806C101.118 86.2946 120.208 90.451 137.644 100.383C140.513 102.001 143.529 105.937 143.823 109.027C144.301 114.544 137.975 116.42 131.427 112.926C108.805 100.898 84.8592 98.2126 59.8833 102.443C57.0877 102.921 54.1451 104.613 51.6069 104.098C48.3701 103.399 45.4642 101.045 42.4112 99.4265C44.3239 96.5206 45.7585 91.6281 48.2598 91.0028C58.927 88.3545 69.962 86.9564 80.8866 85.0806H80.8868ZM77.135 113.183C98.2487 113.514 113.845 116.751 128.154 124.844C131.869 126.94 136.246 129.736 132.642 134.26C131.207 136.062 125.359 136.283 122.784 134.885C104.318 125.027 84.7496 123.813 64.5923 126.351C61.245 126.756 57.8976 128.264 54.6975 127.933C51.6443 127.602 48.7753 125.542 45.8325 124.255C47.8555 121.79 49.5477 117.634 52.0121 117.119C61.7965 114.949 71.8384 113.956 77.135 113.183ZM188 94.0191C188 119.951 178.804 142.132 160.449 160.487C142.094 178.841 119.95 188.037 93.9814 188.037C68.0492 188.037 45.8687 178.841 27.5141 160.487C9.15947 142.132 -0.0365601 119.988 -0.0365601 94.0191C-0.0365601 68.0868 9.15928 45.9061 27.5141 27.5515C45.9058 9.19657 68.0494 0.000915527 93.9816 0.000915527C119.914 0.000915527 142.095 9.19676 160.449 27.5515C178.804 45.9065 188 68.0868 188 94.0191ZM176.23 94.0191C176.23 71.2502 168.211 51.8654 152.174 35.8281C136.173 19.7905 116.752 11.7718 93.9827 11.7718C71.2505 11.7718 51.8289 19.7907 35.7914 35.8279C19.7539 51.8652 11.7353 71.2502 11.7353 94.0191C11.7353 116.788 19.7541 136.246 35.7914 152.394C51.829 168.542 71.2136 176.635 93.9825 176.635C116.751 176.635 136.136 168.542 152.174 152.394C168.211 136.246 176.23 116.788 176.23 94.0191Z" fill="black"/>
</g>
<defs>
<clipPath id="clip0_6_77">
<rect width="188" height="188" fill="white"/>
</clipPath>
</defs>
</svg>
